<?xml version="1.0" encoding="utf-8"?>
<!-- Generator: Adobe Illustrator 19.0.0, SVG Export Plug-In . SVG Version: 6.00 Build 0)  -->
<svg version="1.1" id="Layer_1" xmlns="http://www.w3.org/2000/svg" xmlns:xlink="http://www.w3.org/1999/xlink" x="0px" y="0px"
	 viewBox="-554 303 1070 352" style="enable-background:new -554 303 1070 352;" xml:space="preserve">
<style type="text/css">
	.st0{fill:none;stroke:#1A288E;stroke-width:1.009;stroke-linecap:round;stroke-linejoin:round;}
</style>
<path class="st0" d="M-554,520.7c113.8-7.9,181.6-100.1,281.1-141.6c86-35.9,154.4-8.8,155.8,85c0.8,56.4-16.3,107.7-57.4,148.8
	c-120.6,120.4-184.2-57.5-74.9-129.9c70.8-46.9,164.6,12.3,236.3,24.5c115.1,19.6,239.8,12,259.4-126.3
	c8.1-56.9-62.5-87.9-108.2-51.3c-102,81.7-83,253,66.6,217.3c113.7-27.1,189.5-141,272.6-214.8c9-8,26-28.4,39.2-28.4"/>
</svg>
