<?xml version="1.0" encoding="utf-8"?>
<!-- Generator: Adobe Illustrator 19.0.0, SVG Export Plug-In . SVG Version: 6.00 Build 0)  -->
<svg version="1.1" id="Layer_1" xmlns="http://www.w3.org/2000/svg" xmlns:xlink="http://www.w3.org/1999/xlink" x="0px" y="0px"
	 viewBox="-434 303 830 352" style="enable-background:new -434 303 830 352;" xml:space="preserve">
<style type="text/css">
	.st0{fill:none;stroke:#161482;stroke-linecap:round;stroke-linejoin:round;}
</style>
<path class="st0" d="M-433.4,517.7c111.8-7.9,178.3-100.1,276.1-141.6c84.5-35.9,151.6-8.8,153,85c0.8,56.4-16,107.7-56.4,148.8
	c-118.5,120.4-181-57.5-73.5-129.9c69.5-46.9,161.6,12.3,232.1,24.5c113.1,19.6,235.5,12,254.8-126.3c7.9-56.9-61.4-87.9-106.3-51.3
	c-100.2,81.7-81.6,253,65.5,217.3c111.6-27.1,186.2-141,267.8-214.8c8.8-8,25.6-28.4,38.5-28.4"/>
</svg>
