<?xml version="1.0" encoding="utf-8"?>
<!-- Generator: Adobe Illustrator 19.0.0, SVG Export Plug-In . SVG Version: 6.00 Build 0)  -->
<svg version="1.1" id="Layer_1" xmlns="http://www.w3.org/2000/svg" xmlns:xlink="http://www.w3.org/1999/xlink" x="0px" y="0px"
	 viewBox="0 0 1700 956" style="enable-background:new 0 0 1700 956;" xml:space="preserve">
<style type="text/css">
	.st0{display:none;fill:#09090A;}
	.st1{fill:#41518C;}
	.st2{fill:#FFFFFF;}
</style>
<g id="Layer-1">
	<path class="st0" d="M547.4,1.3c-36.5,6.5-41.9,44.6-44.7,56.7c-10.4,44.7-0.5,220.6-48,484.3c-11.4,63.4-4.5,117.8,56.7,117.8
		c40.8,0,72.5-3.5,174.5-203.2c67.3-130,150.6-293.6,217.9-306.4c43.9-8.4,60.5,31.7,70.1,66.8c21.5,79.3,21.7,147.8,39.3,260.7
		c18.3,117.2,68.2,163.9,147.2,145.1c89.3-21.2,109.6-104.4,84-115.6c-19.9-8.7-39.3,9.8-64.3,15.3c-36.5,7.9-53.2-23-65.4-80.7
		c-33.3-156.8-34.9-317.1-87.3-378.5c-58-67.9-124.5-40.3-172.4-8C764.1,116.7,710.7,272,586.3,461c-8.6,13.1-27,33.3-22.6-16.9
		S623.3,146.7,615,72.2C608.7,15.8,586.1,0,560.6,0C556.2,0,551.8,0.5,547.4,1.3L547.4,1.3z"/>
	<path class="st0" d="M794.1,383c0,45.8,37.1,82.9,82.9,82.9s82.9-37.1,82.9-82.9s-37.1-82.9-82.9-82.9
		C831.2,300.1,794.1,337.2,794.1,383L794.1,383z"/>
</g>
<path class="st1" d="M739.4,758.3l0.1,134.3c0,23.2-19.7,42-44,42c-17.2,0-32-9.4-39.3-23h-0.1L519.2,654
	c-8.7-14.8-15.5-30.8-20-47.3c-4.7-17.1-7.2-34.5-7.2-51.8c0-56,24-106.8,62.5-143.7c13.2-12.6,28.1-23.5,44.3-32.5l0.3-0.1l0.3-0.1
	l1.6-0.8l0.3-0.1l0.1-0.1l1.4-0.7l0.3-0.1l0.9-0.4l0.2-0.1l1.4-0.7l0.3-0.1l0.2-0.1l1.8-0.8l0.3-0.1l0.1-0.1l1.4-0.7l0.2-0.1l1-0.4
	l0.1-0.1l1.4-0.7l0.3-0.1l0.3-0.1l1.8-0.8h0.1l0.1-0.1l1.8-0.8l0.8-0.3l0.1-0.1l1.4-0.6h0.1l0.7-0.3l1.6-0.7l0.3-0.1h0.1l1.9-0.8
	l0.3-0.1l0.6-0.2l1.5-0.6l0.3-0.1l0.3-0.1l2.1-0.8h0.1l1.9-0.7l0.8-0.3l1.9-0.7l0.3-0.1l2-0.7l0.2-0.1h0.1l2-0.7l0.7-0.1l1.8-0.6
	l1.1-0.3l0.9-0.2l1.6-0.4l1.4-0.3l0.9-0.2h0.1l1.6-0.4l1.1-0.2l1.4-0.3l0.7-0.1l0,0l0.6-0.1l1.6-0.3l0.8-0.1l0.2-0.1l1.6-0.3h0.1
	l1.1-0.2l0.7-0.1l2.1-0.4l0.7-0.1l1.2-0.2h0.1l1.6-0.3h0.1l1.1-0.1l0.3-0.1l1.6-0.2l0,0l1.6-0.2l0.3-0.1l1.1-0.1h0.1l1.6-0.2h0.1
	l1.1-0.1l0.3-0.1l1.6-0.2l0,0l1.6-0.1h0.1l1.6-0.1l1.6-0.1l1.6-0.1l0,0l1.6-0.1h0.1l1.6-0.1h0.1l1.4-0.1l0,0l1.6-0.1h0.2l1-0.1h0.5
	l1.6-0.1h0.1l1.6-0.1h0.2l1.4-0.1c3.5-0.1,7-0.2,10.5-0.2h141.1c24.4,0,44.1,18.9,44.1,42.1c0,23.3-19.8,42.1-44.1,42.1H704.9
	c-34.2,0-65.4,13.4-88.1,35c-22.7,21.6-36.7,51.3-36.7,84c0,10.4,1.4,20.6,4.1,30.5c2.6,9.6,6.6,18.7,11.6,27.4
	c0.6,0.9,1.1,1.8,1.6,2.8l53.9,101.2c0-1,0-2.1,0.1-3.1c1.4-23.2,22.1-41,46.4-39.6l3.6,0.1c2.1,0.1-0.9-0.1,3.6-0.1h34.4h106.8
	c34.2,0,65.4-13.4,88.1-35c12.4-11.9,22.3-26.2,28.6-42.2c34.7-1.6,67.2-11.3,95.7-26.9c-3.8,50-26.9,95.3-61.9,128.8
	c-38.6,36.8-91.9,59.7-150.5,59.7H739.4V758.3z"/>
<path class="st2" d="M918,190.3L917.9,56c0-23.2,19.7-42,44-42c17.2,0,32,9.4,39.3,23h0.1l137.1,257.5c8.7,14.8,15.5,30.8,20,47.3
	c4.7,17.1,7.2,34.5,7.2,51.8c0,56-24,106.8-62.5,143.7c-38.6,36.8-91.9,59.7-150.5,59.7H811.3c-24.4,0-44.1-18.9-44.1-42.1
	c0-23.3,19.8-42.1,44.1-42.1h141.1c34.2,0,65.4-13.4,88.1-35c22.7-21.6,36.7-51.3,36.7-84c0-10.4-1.4-20.6-4.1-30.5
	c-2.6-9.6-6.6-18.7-11.6-27.4c-0.6-0.9-1.1-1.8-1.6-2.8l-53.9-101.3c0,1,0,2.1-0.1,3.1c-1.4,23.2-22.1,41-46.4,39.6l-3.6-0.1
	c-2-0.1,1.1,0.1-3.6,0.1H918H811.2c-34.2,0-65.4,13.4-88.1,35c-12.4,11.9-22.3,26.2-28.6,42.2c-34.7,1.6-67.2,11.3-95.7,26.9
	c3.8-50,26.9-95.3,61.9-128.8c38.6-36.8,91.9-59.7,150.5-59.7H918V190.3L918,190.3z"/>
</svg>
