<?xml version="1.0" encoding="utf-8"?>
<!-- Generator: Adobe Illustrator 19.0.0, SVG Export Plug-In . SVG Version: 6.00 Build 0)  -->
<svg version="1.1" id="Layer_1" xmlns="http://www.w3.org/2000/svg" xmlns:xlink="http://www.w3.org/1999/xlink" x="0px" y="0px"
	 viewBox="351 -289 1202 1202" style="enable-background:new 351 -289 1202 1202;" xml:space="preserve">
<style type="text/css">
	.st0{fill:#CECEEF;}
	.st1{fill:#41518C;}
</style>
<path class="st0" d="M838.3,672.3l0.2,161.1c0,27.8-26.8,50.3-59.9,50.3c-23.4,0-43.6-11.2-53.5-27.6H725L538.4,547.3
	c-11.9-17.8-21.1-36.9-27.3-56.7c-6.5-20.5-9.8-41.4-9.8-62.1c0-67.1,32.6-128.1,85.2-172.3c18-15.1,38.3-28.2,60.4-39l0.4-0.2
	l0.5-0.2l2.2-1l0.4-0.2l0.2-0.1l1.8-0.8l0.4-0.2l1.2-0.6l0.3-0.1l1.8-0.8l0.4-0.2l0.3-0.2l2.4-1l0.4-0.2l0.2-0.1l1.9-0.8l0.3-0.1
	l1.4-0.6l0.1-0.1l1.9-0.8l0.5-0.2l0.5-0.2l2.5-1h0.1l0.1-0.1l2.5-1l1.1-0.4l0.2-0.1l1.9-0.7h0.1l1-0.4l2.2-0.8l0.4-0.2h0.1l2.6-0.9
	l0.5-0.2l0.8-0.3l2-0.7l0.5-0.2l0.4-0.2l2.9-0.9h0.1l2.6-0.8l1.1-0.4l2.6-0.8l0.5-0.2l2.8-0.8l0.3-0.1h0.1l2.7-0.8l0.9-0.2l2.5-0.7
	l1.5-0.4l1.3-0.3l2.1-0.5l1.8-0.4l1.3-0.3h0.2l2.1-0.5l1.5-0.3l1.8-0.4l0.9-0.2l0,0l0.8-0.2l2.1-0.4l1.1-0.2l0.3-0.1l2.1-0.4h0.1
	l1.6-0.3l1-0.2l3-0.6l0.9-0.2l1.7-0.3h0.1l2.1-0.4h0.2l1.5-0.2l0.5-0.1l2.1-0.3l0,0l2.1-0.3l0.5-0.1l1.5-0.2h0.1l2.1-0.3h0.1
	l1.6-0.2l0.4-0.1l2.2-0.3l0,0l2.1-0.2h0.1l2.1-0.2l2.2-0.2l2.1-0.2l0,0l2.2-0.2h0.1l2.1-0.2h0.2l1.9-0.1l0,0l2.2-0.2h0.3l1.4-0.1
	h0.6l2.2-0.1h0.1l2.1-0.1h0.3l1.9-0.1c4.7-0.2,9.5-0.3,14.3-0.3h192.3c33.2,0,60.1,22.6,60.1,50.5s-26.9,50.5-60.1,50.5H791.3
	c-46.7,0-89.2,16.1-120,42s-50,61.6-50,100.8c0,12.5,1.9,24.8,5.6,36.5c3.6,11.5,8.9,22.5,15.8,32.9c0.7,1.1,1.5,2.1,2.2,3.3
	l73.4,121.4c0-1.2,0-2.5,0.1-3.7c1.8-27.8,30.1-49.1,63.2-47.5l4.9,0.2c3,0.1-1.3-0.1,4.9-0.1h46.8h145.5c46.7,0,89.2-16.1,120-42
	c17-14.3,30.4-31.5,39-50.6c47.3-1.9,91.6-13.5,130.4-32.3c-5.2,60-36.6,114.2-84.4,154.4c-52.6,44.2-125.2,71.6-205,71.6H838.3
	V672.3z"/>
<path class="st1" d="M1081.7-8.7l-0.2-161.1c0-27.8,26.8-50.3,59.9-50.3c23.4,0,43.6,11.2,53.5,27.6h0.1l186.7,308.8
	c11.9,17.8,21.1,36.9,27.3,56.7c6.5,20.5,9.8,41.4,9.8,62.1c0,67.1-32.6,128.1-85.2,172.3c-52.6,44.2-125.2,71.6-205.1,71.6H936.3
	c-33.2,0-60.1-22.6-60.1-50.5s26.9-50.5,60.1-50.5h192.3c46.7,0,89.2-16.1,120-42s50-61.6,50-100.8c0-12.5-1.9-24.8-5.6-36.5
	c-3.6-11.5-8.9-22.5-15.8-32.9c-0.7-1.1-1.5-2.1-2.1-3.3l-73.4-121.4c0,1.2,0,2.5-0.1,3.7c-1.8,27.8-30.1,49.1-63.2,47.5l-4.9-0.2
	c-2.8-0.1,1.5,0.1-4.9,0.1h-46.8H936.3c-46.7,0-89.2,16.1-120,42c-17,14.3-30.4,31.5-39,50.6c-47.3,1.9-91.6,13.5-130.4,32.3
	c5.2-60,36.6-114.2,84.4-154.4c52.6-44.2,125.1-71.6,205-71.6h145.4V-8.7z"/>
</svg>
